<?xml version="1.0" encoding="UTF-8" standalone="no"?>
<!-- Created with Inkscape (http://www.inkscape.org/) -->

<svg
   xmlns:dc="http://purl.org/dc/elements/1.1/"
   xmlns:cc="http://creativecommons.org/ns#"
   xmlns:rdf="http://www.w3.org/1999/02/22-rdf-syntax-ns#"
   xmlns:svg="http://www.w3.org/2000/svg"
   xmlns="http://www.w3.org/2000/svg"
   xmlns:xlink="http://www.w3.org/1999/xlink"
   xmlns:sodipodi="http://sodipodi.sourceforge.net/DTD/sodipodi-0.dtd"
   xmlns:inkscape="http://www.inkscape.org/namespaces/inkscape"
   width="86.306335mm"
   height="98.978493mm"
   viewBox="0 0 86.306336 98.978505"
   version="1.1"
   id="svg8481"
   sodipodi:docname="Taler_logo_gold.svg"
   inkscape:version="0.92.1 r15371">
  <defs
     id="defs8475">
    <inkscape:path-effect
       effect="skeletal"
       id="path-effect14639"
       is_visible="true"
       pattern="M 0,0 H 1"
       copytype="single_stretched"
       prop_scale="1"
       scale_y_rel="false"
       spacing="0"
       normal_offset="0"
       tang_offset="0"
       prop_units="false"
       vertical_pattern="false"
       fuse_tolerance="0" />
    <linearGradient
       inkscape:collect="always"
       id="linearGradient14626-0">
      <stop
         style="stop-color:#9e5d21;stop-opacity:1;"
         offset="0"
         id="stop14622" />
      <stop
         style="stop-color:#e9bd73;stop-opacity:0.975"
         offset="1"
         id="stop14624" />
    </linearGradient>
    <linearGradient
       inkscape:collect="always"
       xlink:href="#linearGradient14626-0"
       id="linearGradient14632"
       x1="95.517052"
       y1="181.74095"
       x2="101.95673"
       y2="83.653038"
       gradientUnits="userSpaceOnUse" />
    <filter
       inkscape:menu="Shadows and Glows"
       inkscape:menu-tooltip="Cut out, add inner shadow and colorize some parts of an image"
       style="color-interpolation-filters:sRGB;"
       inkscape:label="Emergence"
       id="filter14685">
      <feColorMatrix
         values="0 0 0 0 0 0 0 0 0 0 0 0 0 0 0 0.21 0.72 0.07 0 0 "
         result="result1"
         id="feColorMatrix14657" />
      <feColorMatrix
         values="1 0 0 0 0 0 1 0 0 0 0 0 1 0 0 0 0 0 2 0 "
         result="result9"
         id="feColorMatrix14659" />
      <feComposite
         in2="result9"
         in="SourceGraphic"
         operator="in"
         result="result4"
         id="feComposite14661" />
      <feFlood
         result="result2"
         flood-color="rgb(0,0,0)"
         id="feFlood14663" />
      <feComposite
         in2="result9"
         operator="in"
         result="result10"
         id="feComposite14665" />
      <feComposite
         in2="result4"
         operator="atop"
         id="feComposite14667" />
      <feGaussianBlur
         stdDeviation="3"
         result="result8"
         id="feGaussianBlur14669" />
      <feOffset
         dx="3"
         dy="3"
         result="result3"
         in="result8"
         id="feOffset14671" />
      <feFlood
         flood-opacity="1"
         flood-color="rgb(219,173,62)"
         result="result5"
         id="feFlood14673" />
      <feMerge
         result="result6"
         id="feMerge14681">
        <feMergeNode
           in="result5"
           id="feMergeNode14675" />
        <feMergeNode
           in="result3"
           id="feMergeNode14677" />
        <feMergeNode
           in="result4"
           id="feMergeNode14679" />
      </feMerge>
      <feComposite
         in2="SourceGraphic"
         operator="in"
         result="result7"
         id="feComposite14683" />
    </filter>
  </defs>
  <sodipodi:namedview
     id="base"
     pagecolor="#ffffff"
     bordercolor="#666666"
     borderopacity="1.0"
     inkscape:pageopacity="0.0"
     inkscape:pageshadow="2"
     inkscape:zoom="0.98994949"
     inkscape:cx="49.249151"
     inkscape:cy="158.67031"
     inkscape:document-units="mm"
     inkscape:current-layer="layer1"
     showgrid="false"
     inkscape:window-width="1920"
     inkscape:window-height="1013"
     inkscape:window-x="-9"
     inkscape:window-y="-9"
     inkscape:window-maximized="1" />
  <metadata
     id="metadata8478">
    <rdf:RDF>
      <cc:Work
         rdf:about="">
        <dc:format>image/svg+xml</dc:format>
        <dc:type
           rdf:resource="http://purl.org/dc/dcmitype/StillImage" />
        <dc:title></dc:title>
      </cc:Work>
    </rdf:RDF>
  </metadata>
  <g
     inkscape:label="Layer 1"
     inkscape:groupmode="layer"
     id="layer1"
     transform="translate(-53.688574,-84.276833)">
    <path
       id="path8441"
       style="fill:url(#linearGradient14632);fill-opacity:1;stroke:#e9bd73;stroke-width:1;stroke-miterlimit:4;stroke-dasharray:none;stroke-opacity:0.97647059;fill-rule:nonzero;opacity:1;filter:url(#filter14685);paint-order:markers stroke fill"
       d="m 97.132413,87.36979 c -11.285853,-3.78e-4 -22.572291,-0.05312 -33.857321,0.08321 -1.884815,0.02277 -3.771336,0.02856 -5.652384,0.149823 -0.359712,0.02319 -0.721271,0.04346 -1.074573,0.114933 -0.117357,0.02374 -0.288708,0.02941 -0.313474,0.146552 -0.0064,0.03029 -0.0054,0.06165 -0.0059,0.0926 0,5e-6 0,1e-5 -1e-6,1.5e-5 -0.001,0.06147 -6.3e-5,0.122961 0.0012,0.18443 0.0041,0.207699 0.01281,0.415281 0.0219,0.622822 10e-7,1e-5 10e-7,2.1e-5 2e-6,3.1e-5 0.03084,0.703856 0.07096,1.407272 0.111919,2.110611 0,5e-6 0,1e-5 10e-7,1.6e-5 0.125707,2.158576 0.267891,4.316164 0.414319,6.473434 0,5e-6 10e-7,1e-5 10e-7,1.5e-5 0.278364,4.101053 0.527881,8.205543 0.934894,12.295823 l 0.20573,2.06894 3e-6,3e-5 1.049727,-0.19498 c 0.484321,-0.09 1.019055,-0.1678 1.383799,-0.49891 4e-6,0 8e-6,-10e-6 1.2e-5,-10e-6 0.06609,-0.06 0.0894,-0.15453 0.125882,-0.236 0.08235,-0.18389 0.157037,-0.37111 0.230961,-0.55854 0.253154,-0.64186 0.489765,-1.29012 0.724436,-1.93897 0.737428,-2.03894 1.440486,-4.09018 2.130094,-6.14579 3e-6,-1e-5 7e-6,-2e-5 1e-5,-3e-5 l 2.876832,-8.575395 11.920267,-0.08796 11.920263,-0.08751 v 17.851025 2e-5 17.8515 h -10.306714 -1.6e-5 -10.306242 l -1.565038,2.84886 c -0.374712,0.68222 -0.74529,1.36676 -1.104985,2.05702 l -7e-6,1e-5 -7e-6,2e-5 c -0.11421,0.21917 -0.227839,0.43867 -0.336107,0.66084 l 0,0 c -2e-6,0 -5e-6,1e-5 -7e-6,1e-5 -2e-6,1e-5 -5e-6,1e-5 -7e-6,2e-5 -0.03151,0.0647 -0.0628,0.12944 -0.0915,0.19539 l 0,0 c -0.01259,0.0289 -0.03193,0.0574 -0.03193,0.089 0,1e-5 0,1e-5 0,2e-5 1.7e-5,0.006 0.0096,0.006 0.01552,0.008 0.0151,0.004 0.03061,0.006 0.04606,0.008 0.05998,0.008 0.12037,0.0114 0.180709,0.0152 0.23123,0.0145 0.462855,0.0217 0.694433,0.0288 0.849935,0.0259 1.700233,0.0378 2.550491,0.0488 2.794511,0.0361 5.589314,0.045 8.384058,0.045 h 1.6e-5 11.871264 l 0,2e-5 v 3.00227 3.00228 H 79.998286 l -10.282729,5.1e-4 -7e-6,1e-5 -1.504783,2.74623 c -0.367323,0.67037 -0.733163,1.34155 -1.095611,2.01457 -0.176213,0.3272 -0.372379,0.64655 -0.520861,0.98723 -0.0081,0.0185 0.03089,0.0215 0.0506,0.026 0.05609,0.0129 0.113511,0.0191 0.170735,0.0253 5e-6,0 1e-5,0 1.5e-5,0 0.225154,0.0245 0.4515,0.0363 0.677685,0.048 0.842758,0.0435 1.686564,0.0632 2.530245,0.0814 5e-6,0 10e-6,0 1.5e-5,0 2.799949,0.0606 5.600724,0.0753 8.401329,0.0753 h 11.941818 l -0.165567,13.26012 c -0.03959,3.1762 -0.09379,6.35232 -0.185988,9.52743 -0.02928,1.00851 -0.06064,2.01704 -0.110511,3.02474 -0.01452,0.29332 -0.02983,0.58665 -0.05389,0.87934 -0.01052,0.12792 -4.1e-4,0.26368 -0.05078,0.38174 -4e-6,10e-6 -8e-6,2e-5 -1.2e-5,3e-5 -0.31308,0.73368 -1.277689,0.9056 -2.028334,1.17548 -2.66345,0.95757 -5.402507,1.68818 -8.121649,2.47379 -0.364679,0.10536 -0.740414,0.20905 -1.050496,0.428 -8e-6,1e-5 -1.7e-5,2e-5 -2.5e-5,2e-5 -0.148661,0.10498 -0.268808,0.28757 -0.203471,0.45743 2e-6,0 4e-6,1e-5 6e-6,1e-5 0.164807,0.42844 0.180747,0.90184 0.180747,1.36088 v 0.88985 h 18.40722 18.406728 l -0.22042,-1.33403 c -0.0534,-0.32312 -0.11071,-0.64565 -0.17695,-0.96639 -0.0216,-0.10462 -0.0438,-0.20916 -0.0702,-0.31267 -0.0119,-0.0466 -0.0136,-0.10091 -0.0453,-0.13705 -0.008,-0.01 -0.0229,-0.0119 -0.0349,-0.0166 -1e-5,0 -2e-5,0 -3e-5,-1e-5 -0.029,-0.0115 -0.0585,-0.022 -0.088,-0.0324 -1e-5,0 -2e-5,0 -3e-5,-1e-5 -0.10762,-0.0378 -0.21606,-0.0733 -0.32453,-0.10861 -10e-6,0 -2e-5,0 -3e-5,-1e-5 -0.38741,-0.12619 -0.77636,-0.24762 -1.16541,-0.36863 -1e-5,-1e-5 -2e-5,-1e-5 -3e-5,-1e-5 -1.25677,-0.39092 -2.51649,-0.7723 -3.7772,-1.15032 -1e-5,0 -2e-5,-1e-5 -3e-5,-1e-5 -1.48691,-0.44584 -2.99205,-0.85069 -4.42228,-1.45412 0,0 -1e-5,0 -2e-5,-1e-5 -0.51182,-0.21594 -1.06341,-0.47076 -1.3147,-0.96618 -0.16257,-0.32049 -0.16393,-0.69781 -0.19809,-1.05554 -0.0779,-0.81591 -0.10511,-1.6358 -0.13005,-2.45504 0,-1e-5 0,-2e-5 0,-3e-5 -0.10557,-3.46805 -0.0942,-6.93856 -0.0956,-10.40822 l -0.004,-13.093 h 9.95111 c 2.88915,0 5.7832,0.0981 8.66603,-0.093 0.43232,-0.0286 0.87745,-0.0421 1.27895,-0.20499 10e-6,0 2e-5,-1e-5 3e-5,-1e-5 0.18455,-0.0749 0.33099,-0.22077 0.43667,-0.38958 0.59156,-0.94497 1.10999,-1.93379 1.63484,-2.91738 0,-1e-5 10e-6,-2e-5 10e-6,-3e-5 0.26402,-0.49477 0.52547,-0.99097 0.77677,-1.49232 0.0823,-0.16422 0.16405,-0.32877 0.2402,-0.49594 0.023,-0.0506 0.0457,-0.10127 0.0658,-0.15307 0.01,-0.0252 0.023,-0.0505 0.023,-0.0775 0,-0.006 -0.009,-0.007 -0.0151,-0.009 -10e-6,-10e-6 -2e-5,-10e-6 -3e-5,-10e-6 -0.0146,-0.004 -0.0297,-0.007 -0.0447,-0.009 -0.0582,-0.009 -0.11691,-0.0134 -0.17558,-0.0179 -1e-5,0 -3e-5,-1e-5 -4e-5,-1e-5 -1e-5,0 -2e-5,0 -3e-5,0 -0.22457,-0.0171 -0.44971,-0.0256 -0.67479,-0.0339 -10e-6,0 -2e-5,0 -3e-5,0 -0.82587,-0.0305 -1.65226,-0.0445 -2.47859,-0.0575 -2.71568,-0.0426 -5.43179,-0.0531 -8.14781,-0.0531 h -11.53673 v -3e-5 -3.00226 -3.00229 l 9.96728,0 h 3e-5 9.96773 l 1.48518,-2.7467 1e-5,-3e-5 c 0.36271,-0.67051 0.72401,-1.34179 1.08209,-2.01479 1e-5,-1e-5 1e-5,-1e-5 2e-5,-2e-5 0.17422,-0.32743 0.36713,-0.64745 0.51526,-0.98748 0.008,-0.018 -0.0295,-0.0215 -0.0486,-0.0261 -0.0541,-0.0129 -0.10966,-0.0191 -0.16497,-0.0253 -1e-5,0 -2e-5,0 -3e-5,0 -0.21777,-0.0245 -0.43678,-0.0363 -0.65562,-0.0479 -0.81574,-0.0434 -1.63256,-0.063 -2.44925,-0.0813 -2.71114,-0.0605 -5.42313,-0.075 -8.13495,-0.075 l -11.56456,0 V 111.24446 93.397342 l 11.83356,0 h 11.83357 l 1.07814,4.586991 c 0.71249,3.030657 1.42716,6.060807 2.14402,9.090437 l 1.06589,4.50344 1.15358,-0.11191 c 0.29662,-0.0286 0.59196,-0.0739 0.88165,-0.14381 1e-5,0 2e-5,0 3e-5,0 0.17415,-0.042 0.37124,-0.0641 0.49918,-0.18946 0.0233,-0.0228 0.0275,-0.059 0.0372,-0.0902 0.022,-0.0704 0.0402,-0.14187 0.0581,-0.21341 0,-1e-5 0,-2e-5 1e-5,-3e-5 0.0633,-0.25333 0.1183,-0.50864 0.17283,-0.76399 0.18797,-0.88016 0.36013,-1.76362 0.53105,-2.64725 0.51108,-2.6423 0.99619,-5.28956 1.47332,-7.938202 0,-10e-6 0,-2.1e-5 1e-5,-3.1e-5 0.47818,-2.654488 0.94828,-5.310489 1.39254,-7.970864 0.14946,-0.895043 0.29762,-1.79037 0.43007,-2.688088 0,-1e-5 1e-5,-2.1e-5 1e-5,-3.1e-5 0.0388,-0.263091 0.0771,-0.526322 0.1072,-0.79055 0.009,-0.07594 0.0169,-0.151957 0.0215,-0.22825 1e-5,-1e-5 1e-5,-2.1e-5 1e-5,-3.1e-5 0.002,-0.03536 0.009,-0.07236 -0.002,-0.105956 l 0,0 c -0.006,-0.01714 -0.0315,-0.01561 -0.0492,-0.01928 -0.0442,-0.0092 -0.0892,-0.01403 -0.13411,-0.01873 -1e-5,-10e-7 -2e-5,-3e-6 -3e-5,-4e-6 -0.17304,-0.01811 -0.34692,-0.02705 -0.52068,-0.03583 -0.67808,-0.03423 -1.35695,-0.04972 -2.03572,-0.06497 -2.64037,-0.05933 -5.28144,-0.08112 -7.92239,-0.102191 -10.0796,-0.08043 -20.15965,-0.08502 -30.239567,-0.08542 z"
       inkscape:connector-curvature="0"
       inkscape:path-effect="#path-effect14639"
       inkscape:original-d="m 97.132413,87.36979 c -35.848085,-0.0012 -40.80552,0.05826 -40.897752,0.49452 -0.101226,0.478773 1.057631,17.5519 1.478338,21.7798 l 0.205733,2.06897 1.049727,-0.19498 c 0.577243,-0.1073 1.199879,-0.33195 1.383799,-0.49891 0.183919,-0.16696 1.629058,-4.16265 3.211395,-8.87934 l 2.876832,-8.575395 11.920267,-0.08796 11.920263,-0.08751 v 17.851045 17.8515 H 79.974285 69.668043 l -1.565038,2.84886 c -0.860557,1.56678 -1.564553,2.91784 -1.56455,3.0023 0,0.0845 5.342166,0.15344 11.87128,0.15344 h 11.87128 v 3.00229 3.00228 H 79.998286 l -10.282729,5.1e-4 -1.50479,2.74624 c -0.827634,1.51044 -1.555172,2.86115 -1.616472,3.0018 -0.06131,0.14064 5.262559,0.25606 11.830625,0.25606 h 11.941818 l -0.165567,13.26012 c -0.09091,7.29306 -0.271333,13.509 -0.401177,13.81328 -0.299925,0.70285 -1.725639,1.21533 -10.149983,3.64927 -1.002863,0.28975 -1.380529,0.55649 -1.253992,0.88545 0.09959,0.25889 0.180753,0.87135 0.180753,1.36089 v 0.88985 h 18.40722 18.406728 l -0.22042,-1.33403 c -0.12137,-0.73389 -0.25301,-1.37111 -0.29244,-1.41611 -0.0395,-0.045 -2.46503,-0.79948 -5.3902,-1.67658 -4.49743,-1.34852 -5.38297,-1.72235 -5.737,-2.42031 -0.31387,-0.61877 -0.41994,-4.10325 -0.42371,-13.91883 l -0.004,-13.093 h 9.95111 c 9.68588,0 9.96297,-0.0187 10.38168,-0.68753 0.70541,-1.12683 2.74065,-4.94084 2.74065,-5.13625 0,-0.0995 -5.19151,-0.18081 -11.53672,-0.18081 h -11.53673 v -3.00229 -3.00229 h 9.96728 9.96776 l 1.48519,-2.74673 c 0.81709,-1.51049 1.53604,-2.86151 1.59737,-3.00229 0.0614,-0.14079 -5.09292,-0.25557 -11.45345,-0.25557 H 103.32253 V 111.24446 93.397342 h 11.83356 11.83357 l 1.07814,4.586991 c 0.59309,2.522767 1.55795,6.613547 2.14402,9.090437 l 1.06589,4.50344 1.15358,-0.11191 c 0.63464,-0.0613 1.25622,-0.21111 1.38086,-0.33327 0.28066,-0.275 4.37208,-22.987475 4.22194,-23.436833 -0.0697,-0.208483 -14.72871,-0.325384 -40.901677,-0.326418 z" />
  </g>
</svg>
