<svg width="24.000000000000004" height="24.000000000000004" xmlns="http://www.w3.org/2000/svg">
  <g id="svg_2">
   <path id="svg_4" fill="#ffffff" d="m23.60098,19.64007c0.40293,-0.56679 0.18322,-0.9362 0.07001,-1.06877c-0.49826,-0.58466 -1.88432,-0.33218 -2.99481,0.21897c-1.51118,0.75149 -5.0482,1.75994 -7.40026,0.82076c4.36002,0.3009 4.53504,-0.11023 4.63335,-0.34037c0.08714,-0.20556 0.07597,-0.43421 -0.03426,-0.64424c-0.23759,-0.45656 -1.03079,-1.16336 -5.14428,-2.02359c-4.33842,-0.90864 -7.42111,-0.03054 -7.54996,0.00745l-0.26738,0.07746l0,6.63681l0.54072,-0.27259c0.71351,-0.36048 2.7818,-1.19315 3.76344,-0.71649c1.35999,0.65765 4.68325,1.49703 6.95859,1.49703c0.21003,0 0.41187,-0.00745 0.60254,-0.02234c2.43547,-0.19439 6.13932,-3.21227 6.8223,-4.17007zm-0.60701,-0.43198c-0.59434,0.83416 -4.12913,3.68819 -6.27711,3.86024c-2.09287,0.16981 -5.79672,-0.73511 -7.17682,-1.40318c-0.32026,-0.15417 -0.6934,-0.21599 -1.08442,-0.21599c-1.0077,0 -2.13755,0.40814 -2.79893,0.68967l0,-4.87985c0.82523,-0.18396 3.48265,-0.64499 6.91987,0.07299c3.60703,0.75447 4.41662,1.36743 4.59611,1.57225c-0.69936,0.13332 -3.18026,0.03426 -5.30665,-0.15045l-1.03526,-0.09012l0.74256,0.72766c2.67306,2.61719 8.11973,0.71872 9.4328,0.06778c1.09187,-0.54295 1.96625,-0.52508 2.0817,-0.44092c0.00074,0 -0.00075,0.05884 -0.09385,0.18992z"/>
   <path id="svg_5" fill="#ffffff" d="m0,23.81163l4.01964,0l0,-7.21626l-4.01964,0l0,7.21626zm0.74479,-6.47221l2.53006,0l0,5.72668l-2.53006,0l0,-5.72668z"/>
   <path id="svg_6" fill="#ffffff" d="m18.4351,16.64528l0,-5.50622l2.04892,0l-3.41115,-5.79818l-1.79271,3.04767l-3.36348,-5.71774l-1.79272,3.04693l-3.36348,-5.71774l-3.41115,5.79743l2.04892,0l0,5.50622l2.72371,0l0,-5.50622l1.95508,0l-1.57077,2.67081l2.04892,0l0,5.50622l2.72296,0l0,-5.50622l1.95508,0l-1.57077,2.67081l2.04892,0l0,5.50622l2.72371,0zm-11.05793,-11.59263l0,5.50622l-1.23412,0l0,-5.50622l-1.49182,0l2.10925,-3.58392l2.10851,3.58392l-1.49182,0zm5.1562,2.67081l0,5.50622l-1.23338,0l0,-5.50622l-1.49182,0l2.10851,-3.58318l2.10851,3.58392l-1.49182,0l0,-0.00075zm2.431,2.67081l2.10851,-3.58392l2.10925,3.58392l-1.49182,0l0,5.50622l-1.23412,0l0,-5.50622l-1.49182,0z"/>
   <path id="svg_9" d="m8.12196,11.30366l-2.72371,0l0,-5.50622l-2.04892,0l3.41115,-5.79743l3.4104,5.79743l-2.04892,0l0,5.50622z"/>
   <path id="svg_11" d="m13.27816,13.97447l-2.72296,0l0,-5.50622l-2.04892,0l3.41041,-5.79743l3.41041,5.79743l-2.04893,0l0,5.50622z"/>
   <path id="svg_13" d="m18.4351,16.64528l-2.72371,0l0,-5.50622l-2.04892,0l3.4104,-5.79818l3.41115,5.79818l-2.04892,0l0,5.50622z"/>
   <path id="svg_15" d="m5.28505,23.09217c0,0 2.72892,-1.3786 4.09338,-0.71947c1.36446,0.65914 5.11672,1.61768 7.36898,1.43819c2.25151,-0.17949 5.86747,-3.05587 6.54971,-4.01515c0.68223,-0.95854 -0.88705,-1.07845 -2.45633,-0.2994c-1.56928,0.77905 -6.61823,2.33715 -9.00603,0c0,0 5.52636,0.47964 5.73118,0c0.20482,-0.47964 -0.61371,-1.25869 -4.91265,-2.15691c-4.2982,-0.89896 -7.36823,0 -7.36823,0l0,5.75274z"/>
   <rect x="0.3724" y="17.33942" width="3.27485" height="6.47147" id="svg_1"/>
  </g>
</svg>
