<svg width="12" height="12" xmlns="http://www.w3.org/2000/svg">

  <g id="svg_1">
   <path id="svg_4" d="m11.79398,9.30244c-0.24827,-0.29284 -0.93889,-0.16601 -1.4922,0.10968c-0.75297,0.37641 -2.51533,0.88152 -3.68727,0.4111c2.17243,0.15071 2.25964,-0.05484 2.30862,-0.17049c0.04342,-0.10296 0.03785,-0.21749 -0.01707,-0.32269c-0.11838,-0.22868 -0.5136,-0.58271 -2.5632,-1.01359c-2.16166,-0.45475 -3.69766,-0.01567 -3.76186,0.00373l-0.13322,0.0388l0,3.32427l0.26942,-0.13654c0.35551,-0.18056 1.38606,-0.59763 1.87517,-0.35888c0.67763,0.3294 2.33349,0.74983 3.4672,0.74983c0.10465,0 0.20522,-0.00373 0.30022,-0.01119c1.21424,-0.09737 3.0601,-1.6086 3.40003,-2.08872c0.20039,-0.28426 0.09092,-0.4693 0.03414,-0.53533l0,0zm-0.33696,0.31859c-0.29614,0.41782 -2.05739,1.84736 -3.12764,1.93353c-1.0428,0.08394 -2.88828,-0.3682 -3.57594,-0.70283c-0.15957,-0.07722 -0.34549,-0.10819 -0.54032,-0.10819c-0.5021,0 -1.06506,0.20443 -1.3946,0.34545l0,-2.44424c0.41118,-0.09214 1.73527,-0.32306 3.44791,0.03656c1.79724,0.3779 2.20063,0.68492 2.29007,0.78752c-0.34846,0.0664 -1.5846,0.01716 -2.6441,-0.07536l-0.51583,-0.04514l0.36999,0.36447c1.33188,1.31054 4.04575,0.36 4.7,0.03395c0.54403,-0.27196 0.97971,-0.26338 1.03723,-0.22085c0.00037,0 -0.00037,0.02947 -0.04676,0.09513l-0.00001,0z"/>
   <path id="svg_5" d="m0,11.92686l2.00283,0l0,-3.61451l-2.00283,0l0,3.61451zm0.3711,-3.24183l1.26063,0l0,2.8684l-1.26063,0l0,-2.8684z"/>
   <path id="svg_6" d="m2.68974,0l0,2.75798l-1.0209,0l1.69964,2.90384l0.89324,-1.52616l1.67589,2.86393l0.89324,-1.52653l1.67589,2.8643l1.69964,-2.90422l-1.0209,0l0,-2.7576l-1.35712,0l0,2.7576l-0.97414,0l0.78266,-1.33739l-1.0209,0l0,-2.75798l-1.35675,0l0,2.75798l-0.97414,0l0.78266,-1.33777l-1.0209,0l0,-2.75798l-1.35712,0l0.00001,0zm5.50974,5.80582l0,-2.75723l0.61492,0l0,2.7576l0.74331,0l-1.05096,1.79513l-1.05059,-1.79513l0.74332,0l0,-0.00037zm-2.56914,-1.33702l0,-2.75798l0.61454,0l0,2.75798l0.74332,0l-1.05059,1.79476l-1.05059,-1.79513l0.74332,0l0,0.00037zm-1.21128,-1.33777l-1.05059,1.79513l-1.05096,-1.79513l0.74332,0l0,-2.75798l0.61491,0l0,2.75798l0.74332,0z"/>
   <path id="svg_9" d="m2.63334,11.56649c0,0 1.35972,-0.69052 2.03958,-0.36037c0.67986,0.33015 2.54947,0.81027 3.67168,0.72036c1.12184,-0.08991 2.92354,-1.53064 3.26347,-2.01113c0.33993,-0.48012 -0.44198,-0.54018 -1.22389,-0.14997c-0.78191,0.39021 -3.29761,1.17064 -4.48736,0c0,0 2.75357,0.24025 2.85563,0c0.10205,-0.24024 -0.30579,-0.63046 -2.44779,-1.08036c-2.14163,-0.45027 -3.67131,0 -3.67131,0l0,2.88146l-0.00001,0z"/>
   <rect id="svg_11" height="3.24146" width="1.63173" y="8.68504" x="0.18555"/>
   <path id="svg_13" d="m8.50676,8.33735l-1.69927,-2.90422l1.0209,0l0,-2.7576l1.35712,0l0,2.7576l1.0209,0l-1.69964,2.90422l0,0z"/>
   <path id="svg_15" d="m5.93762,6.99959l-1.69927,-2.90384l1.0209,0l0,-2.75798l1.35675,0l0,2.75798l1.0209,0l-1.69927,2.90384l0,0z"/>
   <path id="svg_17" d="m3.36849,5.66182l-1.69964,-2.90384l1.0209,0l0,-2.75798l1.35712,0l0,2.75798l1.0209,0l-1.69927,2.90384l-0.00001,0z"/>
  </g>

</svg>
