<svg xmlns="http://www.w3.org/2000/svg" data-name="Layer 1" viewBox="0 0 100 125" x="0px" y="0px"><title>Artboard 24</title><path d="M70.62,21.59a1.27,1.27,0,0,0-1.82-1.76L46,39.19,34,34.54a2.92,2.92,0,0,1-.34-5.3L83.53,1.32A2.46,2.46,0,0,1,87.18,3.7L82.77,49.29a3,3,0,0,1-4.09,2.52L64.06,46.16l-8.19,7.68a3,3,0,0,1-5-2.15V46.26ZM94.26,56.14a6.52,6.52,0,0,0-9.18.56L69.26,74.78a7.39,7.39,0,0,1-5.52,2.48H49a2.08,2.08,0,0,1,0-4.15H62a6.28,6.28,0,1,0,0-12.55H45.28a26.18,26.18,0,0,0-28.16,5.66L3.53,79.61,27.2,99l5.37-5.37H63.41A15.5,15.5,0,0,0,75.1,88.32l19.76-23A6.51,6.51,0,0,0,94.26,56.14Z"/><text x="0" y="115" fill="#000000" font-size="5px" font-weight="bold" font-family="'Helvetica Neue', Helvetica, Arial-Unicode, Arial, Sans-serif">Created by Gregor Cresnar</text><text x="0" y="120" fill="#000000" font-size="5px" font-weight="bold" font-family="'Helvetica Neue', Helvetica, Arial-Unicode, Arial, Sans-serif">from the Noun Project</text></svg>